<svg width="122" height="16" viewBox="0 0 122 16" fill="none" xmlns="http://www.w3.org/2000/svg">
<path d="M2.988 10.668H3.474C3.738 10.668 3.918 10.62 4.014 10.524C4.122 10.416 4.176 10.248 4.176 10.02V1.704H2.52C2.28 1.704 2.106 1.758 1.998 1.866C1.89 1.962 1.836 2.124 1.836 2.352V2.928H0.414V0.372H9.828V2.928H8.406V2.352C8.406 2.112 8.352 1.944 8.244 1.848C8.148 1.752 7.974 1.704 7.722 1.704H6.084V10.02C6.084 10.248 6.132 10.416 6.228 10.524C6.336 10.62 6.522 10.668 6.786 10.668H7.272V12H2.988V10.668ZM10.0335 10.668H10.4835C10.7235 10.668 10.8915 10.62 10.9875 10.524C11.0955 10.416 11.1495 10.242 11.1495 10.002V5.358C11.1495 5.13 11.1015 4.962 11.0055 4.854C10.9095 4.746 10.7475 4.692 10.5195 4.692H10.1415V3.36H12.6255L12.8775 4.35C13.1175 3.978 13.4235 3.72 13.7955 3.576C14.1795 3.432 14.6295 3.36 15.1455 3.36H15.9735V4.692H14.9655C14.2815 4.692 13.7955 4.848 13.5075 5.16C13.2195 5.46 13.0755 5.928 13.0755 6.564V10.002C13.0755 10.242 13.1235 10.416 13.2195 10.524C13.3155 10.62 13.4775 10.668 13.7055 10.668H14.1555V12H10.0335V10.668ZM19.2738 12.27C18.3138 12.27 17.5818 12.06 17.0778 11.64C16.5858 11.22 16.3398 10.626 16.3398 9.858C16.3398 8.994 16.6098 8.364 17.1498 7.968C17.7018 7.56 18.4938 7.32 19.5258 7.248L22.0458 7.086V5.988C22.0458 5.424 21.9258 5.016 21.6858 4.764C21.4458 4.512 21.0378 4.386 20.4618 4.386C20.0658 4.386 19.7358 4.422 19.4718 4.494C19.2198 4.554 18.9858 4.656 18.7698 4.8V5.448H17.0958V4.026C18.1038 3.402 19.2378 3.09 20.4978 3.09C22.8018 3.09 23.9538 4.11 23.9538 6.15V10.092C23.9538 10.332 23.9958 10.506 24.0798 10.614C24.1758 10.722 24.3258 10.776 24.5298 10.776H24.9258V12H22.8558L22.6218 10.866C22.2378 11.358 21.7878 11.718 21.2718 11.946C20.7678 12.162 20.1018 12.27 19.2738 12.27ZM19.7058 10.974C20.4258 10.974 20.9958 10.818 21.4158 10.506C21.8358 10.194 22.0458 9.72 22.0458 9.084V8.22L19.6698 8.4C19.0818 8.436 18.6738 8.562 18.4458 8.778C18.2178 8.982 18.1038 9.312 18.1038 9.768C18.1038 10.164 18.2298 10.464 18.4818 10.668C18.7338 10.872 19.1418 10.974 19.7058 10.974ZM26.2131 5.088C26.1531 4.896 26.0631 4.77 25.9431 4.71C25.8351 4.638 25.6311 4.602 25.3311 4.602H24.9531V3.36H27.4551L29.6871 10.11L31.9191 3.36H34.4211V4.602H34.0251C33.7371 4.602 33.5331 4.638 33.4131 4.71C33.3051 4.77 33.2151 4.896 33.1431 5.088L30.6771 12H28.6971L26.2131 5.088ZM38.7741 12.27C37.4061 12.27 36.3081 11.892 35.4801 11.136C34.6641 10.368 34.2561 9.252 34.2561 7.788C34.2561 6.228 34.6341 5.058 35.3901 4.278C36.1581 3.486 37.2441 3.09 38.6481 3.09C40.0041 3.09 41.0301 3.474 41.7261 4.242C42.4221 5.01 42.7701 6.048 42.7701 7.356V8.184H36.1641C36.1641 9.156 36.3981 9.876 36.8661 10.344C37.3461 10.8 37.9881 11.028 38.7921 11.028C39.2481 11.028 39.6321 10.998 39.9441 10.938C40.2561 10.866 40.5381 10.752 40.7901 10.596V9.948H42.4641V11.208C41.9601 11.568 41.4141 11.832 40.8261 12C40.2501 12.18 39.5661 12.27 38.7741 12.27ZM40.9161 7.014C40.9161 5.262 40.1541 4.386 38.6301 4.386C37.8261 4.386 37.2141 4.62 36.7941 5.088C36.3741 5.556 36.1641 6.198 36.1641 7.014H40.9161ZM43.9592 10.668H44.4812C44.7212 10.668 44.8892 10.614 44.9852 10.506C45.0932 10.398 45.1472 10.224 45.1472 9.984V2.082C45.1472 1.854 45.0932 1.692 44.9852 1.596C44.8892 1.488 44.7212 1.434 44.4812 1.434H43.9592V0.0839989H47.0732V10.002C47.0732 10.23 47.1272 10.398 47.2352 10.506C47.3432 10.614 47.5112 10.668 47.7392 10.668H48.2612V12H43.9592V10.668ZM55.5608 10.704H55.9748C56.2148 10.704 56.3828 10.65 56.4788 10.542C56.5868 10.434 56.6408 10.26 56.6408 10.02V2.316C56.6408 2.088 56.5868 1.926 56.4788 1.83C56.3828 1.722 56.2148 1.668 55.9748 1.668H55.5608V0.354H60.7448C62.4128 0.354 63.6488 0.864 64.4528 1.884C65.2688 2.904 65.6768 4.35 65.6768 6.222C65.6768 7.974 65.2568 9.378 64.4168 10.434C63.5888 11.478 62.3648 12 60.7448 12H55.5608V10.704ZM60.4928 10.704C61.6688 10.704 62.5148 10.332 63.0308 9.588C63.5468 8.844 63.8048 7.722 63.8048 6.222C63.8048 4.686 63.5468 3.54 63.0308 2.784C62.5148 2.028 61.6688 1.65 60.4928 1.65H58.5488V10.704H60.4928ZM69.0726 12.27C68.1126 12.27 67.3806 12.06 66.8766 11.64C66.3846 11.22 66.1386 10.626 66.1386 9.858C66.1386 8.994 66.4086 8.364 66.9486 7.968C67.5006 7.56 68.2926 7.32 69.3246 7.248L71.8446 7.086V5.988C71.8446 5.424 71.7246 5.016 71.4846 4.764C71.2446 4.512 70.8366 4.386 70.2606 4.386C69.8646 4.386 69.5346 4.422 69.2706 4.494C69.0186 4.554 68.7846 4.656 68.5686 4.8V5.448H66.8946V4.026C67.9026 3.402 69.0366 3.09 70.2966 3.09C72.6006 3.09 73.7526 4.11 73.7526 6.15V10.092C73.7526 10.332 73.7946 10.506 73.8786 10.614C73.9746 10.722 74.1246 10.776 74.3286 10.776H74.7246V12H72.6546L72.4206 10.866C72.0366 11.358 71.5866 11.718 71.0706 11.946C70.5666 12.162 69.9006 12.27 69.0726 12.27ZM69.5046 10.974C70.2246 10.974 70.7946 10.818 71.2146 10.506C71.6346 10.194 71.8446 9.72 71.8446 9.084V8.22L69.4686 8.4C68.8806 8.436 68.4726 8.562 68.2446 8.778C68.0166 8.982 67.9026 9.312 67.9026 9.768C67.9026 10.164 68.0286 10.464 68.2806 10.668C68.5326 10.872 68.9406 10.974 69.5046 10.974ZM79.848 15.6C78.384 15.6 77.22 15.186 76.356 14.358V13.062H78.03V13.71C78.426 14.142 79.008 14.358 79.776 14.358C80.4 14.358 80.868 14.178 81.18 13.818C81.504 13.458 81.666 12.93 81.666 12.234V10.956C81.33 11.292 80.958 11.538 80.55 11.694C80.142 11.838 79.668 11.91 79.128 11.91C78.096 11.91 77.292 11.646 76.716 11.118C76.14 10.578 75.852 9.822 75.852 8.85V5.358C75.852 5.13 75.798 4.962 75.69 4.854C75.582 4.746 75.414 4.692 75.186 4.692H74.664V3.36H77.76V8.904C77.76 10.08 78.342 10.668 79.506 10.668C80.13 10.668 80.628 10.494 81 10.146C81.372 9.786 81.558 9.27 81.558 8.598V5.358C81.558 5.118 81.51 4.95 81.414 4.854C81.33 4.746 81.174 4.692 80.946 4.692H80.478V3.36H83.484V11.838C83.484 12.978 83.154 13.89 82.494 14.574C81.846 15.258 80.964 15.6 79.848 15.6ZM85.2193 10.416H86.8933V12H85.2193V10.416ZM92.8821 12.27C92.0181 12.27 91.2321 12.096 90.5241 11.748C89.8281 11.4 89.2761 10.884 88.8681 10.2C88.4601 9.516 88.2561 8.7 88.2561 7.752C88.2561 6.24 88.6581 5.088 89.4621 4.296C90.2781 3.492 91.4001 3.09 92.8281 3.09C93.6081 3.09 94.2621 3.174 94.7901 3.342C95.3181 3.51 95.8281 3.78 96.3201 4.152V5.88H94.6461V4.89C94.3701 4.734 94.1061 4.626 93.8541 4.566C93.6021 4.506 93.2601 4.476 92.8281 4.476C92.0241 4.476 91.3701 4.746 90.8661 5.286C90.3741 5.814 90.1281 6.636 90.1281 7.752C90.1281 8.808 90.4101 9.594 90.9741 10.11C91.5501 10.614 92.2821 10.866 93.1701 10.866C93.7221 10.866 94.1901 10.818 94.5741 10.722C94.9701 10.626 95.3421 10.464 95.6901 10.236L96.3561 11.334C95.8521 11.682 95.3361 11.922 94.8081 12.054C94.2921 12.198 93.6501 12.27 92.8821 12.27ZM101.702 12.27C100.238 12.27 99.1337 11.868 98.3897 11.064C97.6457 10.26 97.2737 9.138 97.2737 7.698C97.2737 6.246 97.6397 5.118 98.3717 4.314C99.1157 3.498 100.226 3.09 101.702 3.09C103.178 3.09 104.282 3.498 105.014 4.314C105.758 5.118 106.13 6.246 106.13 7.698C106.13 9.138 105.758 10.26 105.014 11.064C104.27 11.868 103.166 12.27 101.702 12.27ZM101.702 10.92C102.566 10.92 103.208 10.656 103.628 10.128C104.048 9.6 104.258 8.79 104.258 7.698C104.258 6.594 104.048 5.778 103.628 5.25C103.208 4.71 102.566 4.44 101.702 4.44C100.838 4.44 100.196 4.71 99.7757 5.25C99.3677 5.778 99.1637 6.594 99.1637 7.698C99.1637 8.79 99.3677 9.6 99.7757 10.128C100.196 10.656 100.838 10.92 101.702 10.92ZM107.311 10.668H107.761C108.001 10.668 108.169 10.62 108.265 10.524C108.373 10.416 108.427 10.242 108.427 10.002V5.358C108.427 5.13 108.373 4.968 108.265 4.872C108.169 4.764 108.001 4.71 107.761 4.71H107.401V3.36H109.651L109.777 4.584C110.101 4.08 110.503 3.708 110.983 3.468C111.475 3.216 112.069 3.09 112.765 3.09C113.293 3.09 113.749 3.21 114.133 3.45C114.517 3.69 114.805 4.032 114.997 4.476C115.297 3.996 115.663 3.648 116.095 3.432C116.539 3.204 117.091 3.09 117.751 3.09C118.735 3.09 119.443 3.336 119.875 3.828C120.319 4.32 120.541 5.058 120.541 6.042V10.002C120.541 10.23 120.595 10.398 120.703 10.506C120.811 10.614 120.979 10.668 121.207 10.668H121.711V12H118.651V6.042C118.651 5.442 118.537 5.016 118.309 4.764C118.081 4.512 117.697 4.386 117.157 4.386C116.605 4.386 116.167 4.542 115.843 4.854C115.531 5.166 115.375 5.622 115.375 6.222V10.002C115.375 10.242 115.417 10.416 115.501 10.524C115.597 10.62 115.759 10.668 115.987 10.668H116.473V12H113.593V6.096C113.593 5.508 113.479 5.076 113.251 4.8C113.023 4.524 112.663 4.386 112.171 4.386C111.571 4.386 111.109 4.554 110.785 4.89C110.461 5.226 110.299 5.718 110.299 6.366V10.002C110.299 10.242 110.341 10.416 110.425 10.524C110.521 10.62 110.683 10.668 110.911 10.668H111.397V12H107.311V10.668Z" fill="#FA793C"/>
</svg>
